HIERARCHY
ROOT Hips
{
	OFFSET -3.958830 18.904000 13.208200
	CHANNELS 6 Xposition Yposition Zposition Zrotation Yrotation Xrotation 
	JOINT LHipJoint
	{
		OFFSET 0.000000 0.000000 0.000000
		CHANNELS 3 Zrotation Yrotation Xrotation
		JOINT LeftUpLeg
		{
			OFFSET 1.800000 -1.400000 0.085000
			CHANNELS 3 Zrotation Yrotation Xrotation
			JOINT LeftLeg
			{
				OFFSET 2.215000 -6.000000 0.000000
				CHANNELS 3 Zrotation Yrotation Xrotation
				JOINT LeftFoot
				{
					OFFSET 2.500000 -6.900000 0.000000
					CHANNELS 3 Zrotation Yrotation Xrotation
					JOINT LeftToeBase
					{
						OFFSET 0.200000 -0.500000 1.950000
						CHANNELS 3 Zrotation Yrotation Xrotation
						End Site
						{
							OFFSET 0.000000 0.000000 0.000000
						}
					}
				}
			}
		}
	}
	JOINT RHipJoint
	{
		OFFSET 0.000000 0.000000 0.000000
		CHANNELS 3 Zrotation Yrotation Xrotation
		JOINT RightUpLeg
		{
			OFFSET -1.800000 -1.400000 0.085000
			CHANNELS 3 Zrotation Yrotation Xrotation
			JOINT RightLeg
			{
				OFFSET -2.215000 -6.000000 0.000000
				CHANNELS 3 Zrotation Yrotation Xrotation
				JOINT RightFoot
				{
					OFFSET -2.500000 -6.900000 0.000000
					CHANNELS 3 Zrotation Yrotation Xrotation
					JOINT RightToeBase
					{
						OFFSET -0.200000 -0.500000 1.950000
						CHANNELS 3 Zrotation Yrotation Xrotation
						End Site
						{
							OFFSET 0.000000 0.000000 0.000000
						}
					}
				}
			}
		}
	}
	JOINT LowerBack
	{
		OFFSET 0.000000 0.000000 0.000000
		CHANNELS 3 Zrotation Yrotation Xrotation
		JOINT Spine
		{
			OFFSET -0.087000 1.940000 -0.288900
			CHANNELS 3 Zrotation Yrotation Xrotation
			JOINT Spine1
			{
				OFFSET 0.000000 1.950000 0.060000
				CHANNELS 3 Zrotation Yrotation Xrotation
				JOINT Neck
				{
					OFFSET 0.000000 0.000000 0.000000
					CHANNELS 3 Zrotation Yrotation Xrotation
					JOINT Neck1
					{
						OFFSET 0.000000 1.600000 0.340000
						CHANNELS 3 Zrotation Yrotation Xrotation
						JOINT Head
						{
							OFFSET 0.000000 1.667000 -0.240000
							CHANNELS 3 Zrotation Yrotation Xrotation
							End Site
							{
								OFFSET 0.000000 0.000000 0.000000
							}
						}
					}
				}
				JOINT LeftShoulder
				{
					OFFSET 0.000000 0.000000 0.000000
					CHANNELS 3 Zrotation Yrotation Xrotation
					JOINT LeftArm
					{
						OFFSET 2.700000 1.550000 -0.730000
						CHANNELS 3 Zrotation Yrotation Xrotation
						JOINT LeftForeArm
						{
							OFFSET 5.450000 0.000000 0.000000
							CHANNELS 3 Zrotation Yrotation Xrotation
							JOINT LeftHand
							{
								OFFSET 3.450000 0.000000 0.000000
								CHANNELS 3 Zrotation Yrotation Xrotation
								JOINT LeftHandIndex1
								{
									OFFSET 0.750000 0.000000 0.000000
									CHANNELS 3 Zrotation Yrotation Xrotation
									End Site
									{
										OFFSET 0.000000 0.000000 0.000000
									}
								}
							}
						}
					}
				}
				JOINT RightShoulder
				{
					OFFSET 0.000000 0.000000 0.000000
					CHANNELS 3 Zrotation Yrotation Xrotation
					JOINT RightArm
					{
						OFFSET -2.700000 1.550000 -0.730000
						CHANNELS 3 Zrotation Yrotation Xrotation
						JOINT RightForeArm
						{
							OFFSET -5.450000 0.000000 0.000000
							CHANNELS 3 Zrotation Yrotation Xrotation
							JOINT RightHand
							{
								OFFSET -3.450000 0.000000 0.000000
								CHANNELS 3 Zrotation Yrotation Xrotation
								JOINT RightHandIndex1
								{
									OFFSET -0.750000 0.000000 0.000000
									CHANNELS 3 Zrotation Yrotation Xrotation
									End Site
									{
										OFFSET 0.000000 0.000000 0.000000
									}
								}
							}
						}
					}
				}
			}
		}
	}
}
MOTION
Frames: 9
Frame Time: 0.016667
0.478310 16.974340 -0.036290 -3.440613 -10.354608 4.045311 -14.547218 12.840355 2.823514 4.476472 -1.473237 -10.042373 -10.246409 6.450045 12.679030 0.268562 3.846081 3.207658 0.414560 0.031600 0.566940 18.846687 -11.602242 2.704128 -0.830718 0.533462 -14.044645 5.047500 -5.306896 17.723038 -0.194915 -3.343098 3.181178 -0.227630 -0.174480 0.260900 -5.172307 0.328437 -6.863053 16.119146 -1.281531 2.125851 -15.058167 -0.124867 8.716400 3.003710 -1.300976 -11.237588 -9.241526 -5.757318 64.739181 -5.833200 -11.118630 12.808730 -4.879365 -4.248969 4.666434 -57.551582 -9.963487 -2.843425 -30.727904 -27.585823 5.544355 -3.370478 3.458432 0.168370 -0.106830 0.120010 0.045040 -1.557286 5.708295 6.488328 81.830275 2.971341 -6.923494 13.576657 7.175230 -0.131899 2.834273 -1.545029 0.283160 -0.324340 -0.298270 -0.013580 
0.467990 16.976220 -0.036680 -3.484259 -11.053230 4.243275 -14.607046 13.006817 2.842627 4.590283 -1.491230 -10.347227 -10.248088 6.527269 12.872195 0.299770 3.917764 3.190780 0.374240 -0.010870 0.496290 18.797268 -11.409921 2.669392 -0.585755 0.610067 -14.129263 4.865324 -5.222920 17.818542 -0.159029 -3.306228 3.211969 -0.255890 -0.106840 0.268650 -5.017651 -0.313276 -6.807443 15.910818 -1.610990 2.291548 -15.294816 -0.282954 8.363236 2.461086 -4.195752 -11.505457 -17.158788 -0.670345 63.196556 -4.696940 -10.057000 13.501400 -4.364540 -3.372678 4.461028 -58.477781 -10.764245 -2.212293 -29.685474 -27.920996 5.366302 -3.392600 3.478320 0.150310 -0.082570 0.082560 0.056380 -1.112060 6.718957 6.679299 80.994140 2.153301 -7.863670 14.310722 7.155479 -0.210012 2.844763 -1.541854 0.277240 -0.321150 -0.263740 0.016050 
0.458650 16.975800 -0.038660 -3.496322 -11.743670 4.482719 -14.668793 13.137919 2.858035 4.671826 -1.523482 -10.691955 -10.344022 6.632774 13.132295 0.292787 4.024052 3.174328 0.328420 -0.059200 0.438020 18.748724 -11.240805 2.635048 -0.323975 0.717385 -14.368183 4.586294 -5.122109 17.989644 -0.130322 -3.259844 3.236842 -0.268650 -0.031590 0.266810 -4.861227 -0.848527 -6.746334 15.608661 -1.888906 2.539499 -15.391166 -0.422666 7.882274 2.078232 -6.571121 -11.762688 -23.768430 3.118425 60.016626 -4.247000 -8.813910 13.232390 -3.917095 -2.474630 4.235690 -59.168113 -11.533317 -1.491873 -29.057299 -28.206791 5.267900 -3.428454 3.459049 0.152880 -0.056010 0.049550 0.065000 -0.829254 7.315189 6.819594 80.180034 1.393983 -8.599395 15.221136 6.887359 -0.282327 2.837286 -1.515021 0.239960 -0.278670 -0.220580 0.030880 
0.449500 16.974150 -0.038850 -3.547651 -12.410343 4.721485 -14.731440 13.249452 2.878152 4.879945 -1.550608 -10.974594 -10.682377 6.788041 13.233457 0.280322 4.158088 3.158783 0.268600 -0.123660 0.370760 18.701454 -11.072283 2.600088 -0.045519 0.828590 -14.592385 4.348340 -5.032347 18.192430 -0.093150 -3.220392 3.271916 -0.280170 0.052990 0.240690 -4.705837 -1.351933 -6.691329 15.251761 -2.126925 2.861895 -15.154640 -0.565922 7.143328 1.646244 -8.601493 -12.146558 -29.761292 6.387678 55.987910 -3.769320 -7.466850 13.279690 -3.855110 -1.734457 4.095452 -59.747935 -12.039461 -0.862222 -28.342697 -28.399740 5.120186 -3.465847 3.418873 0.157490 -0.027300 0.000740 0.075260 0.022824 7.741756 7.043573 79.092748 0.070783 -9.720187 15.456504 7.340619 -0.398554 2.828424 -1.466895 0.179020 -0.216920 -0.173490 0.038420 
0.442590 16.974330 -0.039080 -3.585209 -12.883823 5.029232 -14.788312 13.343552 2.885885 4.996689 -1.588927 -11.377406 -10.798767 6.888636 13.382468 0.230334 4.272010 3.155932 0.186250 -0.204710 0.292310 18.660284 -10.924523 2.571588 0.178607 0.945524 -14.886002 4.191880 -4.958625 18.342422 -0.042667 -3.183747 3.308224 -0.284550 0.156070 0.190850 -4.568626 -1.784570 -6.636443 14.907226 -2.345531 3.245223 -14.814396 -0.702146 6.298738 1.196420 -10.157341 -12.383546 -34.482158 8.991646 51.007250 -3.187730 -5.835830 12.953530 -3.840263 -0.866194 3.924202 -60.346870 -12.489559 -0.208023 -27.770545 -28.581638 5.003973 -3.519565 3.348299 0.165670 0.009870 -0.066060 0.074990 0.983562 7.582080 7.109451 77.811169 -1.338454 -10.673267 15.752372 7.571409 -0.512789 2.813752 -1.392207 0.085460 -0.125160 -0.109090 0.037650 
0.438780 16.974670 -0.037580 -3.565137 -13.224421 5.397696 -14.837695 13.400698 2.900469 5.048470 -1.662358 -11.807075 -11.017951 6.971239 13.516006 0.179927 4.359153 3.146082 0.178770 -0.216820 0.275700 18.625267 -10.806239 2.546594 0.317685 1.091235 -15.335682 4.045613 -4.892039 18.564717 -0.025300 -3.155340 3.326040 -0.258130 0.205960 0.174410 -4.451530 -2.103642 -6.598231 14.521842 -2.490703 3.621848 -14.508288 -0.794669 5.603123 0.908118 -11.117199 -12.338401 -37.313158 10.758637 46.217265 -3.077360 -3.854640 11.712760 -4.021118 0.172611 3.613047 -60.660873 -12.906047 0.383008 -27.634625 -28.948073 5.045044 -3.547249 3.327861 0.184420 0.031450 -0.095350 0.089710 1.779346 6.814732 6.950033 76.559918 -2.552877 -11.316188 16.276182 7.481431 -0.624088 2.790342 -1.362827 0.029570 -0.074310 -0.090860 0.024040 
0.434770 16.976350 -0.035150 -3.542327 -13.396280 5.740096 -14.877266 13.438322 2.908533 5.070153 -1.745703 -12.215534 -11.105327 6.993811 13.614396 0.115314 4.415375 3.135486 0.199530 -0.203730 0.289240 18.598765 -10.712599 2.528235 0.397950 1.205930 -15.663589 3.963404 -4.826205 18.601038 -0.022173 -3.124216 3.331738 -0.217900 0.231830 0.167740 -4.361135 -2.345792 -6.566428 14.153853 -2.593514 3.975693 -14.259318 -0.850377 5.030484 0.633086 -11.701023 -12.162466 -39.050018 12.248344 42.030437 -2.900070 -1.929460 9.953500 -4.261164 1.106700 3.251816 -60.807767 -13.432158 1.020823 -27.555182 -29.119543 5.068374 -3.567149 3.316706 0.212610 0.041680 -0.108460 0.100510 2.566811 5.867127 6.676048 75.329831 -3.565609 -11.636696 16.790238 6.914599 -0.729594 2.769091 -1.341253 -0.015030 -0.034970 -0.084780 0.001770 
0.433460 16.977620 -0.030240 -3.495509 -13.509031 6.157222 -14.911023 13.458383 2.917224 5.022528 -1.854382 -12.694139 -11.163671 6.998695 13.722902 0.076556 4.459354 3.124941 0.225860 -0.194320 0.324840 18.577056 -10.637862 2.512704 0.456465 1.338816 -16.094790 3.804675 -4.747560 18.691578 -0.015186 -3.108388 3.318948 -0.190790 0.249500 0.195000 -4.286059 -2.524942 -6.535521 13.786389 -2.620088 4.173219 -14.026042 -0.873819 4.519939 0.343019 -12.130001 -11.758772 -39.561775 13.104586 37.906380 -3.230680 0.081890 8.695220 -4.692103 2.148670 2.768606 -60.699291 -13.978696 1.691637 -27.795287 -29.224144 5.214560 -3.606187 3.343809 0.213410 0.066950 -0.119490 0.102580 3.510940 4.755399 6.281643 73.885022 -4.429477 -11.618680 17.242805 5.969635 -0.850426 2.766789 -1.352026 -0.029570 -0.039280 -0.088690 -0.016830 
0.433810 16.976510 -0.025050 -3.471067 -13.557568 6.656029 -14.943763 13.464008 2.919366 5.023518 -1.961594 -13.284884 -11.221126 7.016145 13.832833 0.030724 4.507452 3.115599 0.213590 -0.210400 0.317310 18.559431 -10.563219 2.497660 0.537357 1.486440 -16.594068 3.658227 -4.670506 18.743131 0.015506 -3.109371 3.312805 -0.169810 0.294370 0.207570 -4.220918 -2.675959 -6.490077 13.513309 -2.639733 4.110598 -13.800396 -0.895280 4.226088 0.040264 -12.393521 -11.354345 -39.234185 14.156296 33.970472 -3.565880 2.527580 8.307280 -5.119919 2.953216 2.384760 -60.644463 -14.390259 2.209730 -28.054725 -29.520002 5.382944 -3.672430 3.372598 0.191620 0.118290 -0.161670 0.099930 4.472713 3.763038 5.881528 72.385762 -5.101119 -11.449297 17.572113 4.983914 -0.983301 2.752395 -1.368337 -0.061860 -0.038130 -0.068340 -0.033750 
